<?xml version="1.0" ?>
<svg xmlns="http://www.w3.org/2000/svg" xmlns:xlink="http://www.w3.org/1999/xlink" id="Glyph" fill="#000" enable-background="new 0 0 32 32" version="1.1" viewBox="0 0 32 32" xml:space="preserve">
    <path id="XMLID_314_" d="M26,16c0,1.104-0.896,2-2,2H8c-1.104,0-2-0.896-2-2s0.896-2,2-2h16C25.104,14,26,14.896,26,16z"/>
    <path id="XMLID_315_" d="M26,8c0,1.104-0.896,2-2,2H8c-1.104,0-2-0.896-2-2s0.896-2,2-2h16C25.104,6,26,6.896,26,8z"/>
    <path id="XMLID_316_" d="M26,24c0,1.104-0.896,2-2,2H8c-1.104,0-2-0.896-2-2s0.896-2,2-2h16C25.104,22,26,22.896,26,24z"/>
</svg>
